HIERARCHY
ROOT Hips
{
	OFFSET -0.001795 -0.223333 0.028219
	CHANNELS 6 Xposition Yposition Zposition Zrotation Yrotation Xrotation 
	JOINT LeftUpLeg
	{
		OFFSET 0.069520 -0.091406 -0.006815
		CHANNELS 3 Zrotation Yrotation Xrotation
		JOINT LeftLeg
		{
			OFFSET 0.034277 -0.375199 -0.004496
			CHANNELS 3 Zrotation Yrotation Xrotation
			JOINT LeftFoot
			{
				OFFSET -0.013596 -0.397961 -0.043693
				CHANNELS 3 Zrotation Yrotation Xrotation
				JOINT LeftToe
				{
					OFFSET 0.026358 -0.055791 0.119288
					CHANNELS 3 Zrotation Yrotation Xrotation
					End Site
					{
						OFFSET 0.000000 0.000000 0.000000
					}
				}
			}
		}
	}
	JOINT RightUpLeg
	{
		OFFSET -0.067670 -0.090522 -0.004320
		CHANNELS 3 Zrotation Yrotation Xrotation
		JOINT RightLeg
		{
			OFFSET -0.038290 -0.382569 -0.008850
			CHANNELS 3 Zrotation Yrotation Xrotation
			JOINT RightFoot
			{
				OFFSET 0.015774 -0.398415 -0.042312
				CHANNELS 3 Zrotation Yrotation Xrotation
				JOINT RightToe
				{
					OFFSET -0.025372 -0.048144 0.123348
					CHANNELS 3 Zrotation Yrotation Xrotation
					End Site
					{
						OFFSET 0.000000 0.000000 0.000000
					}
				}
			}
		}
	}
	JOINT Spine
	{
		OFFSET -0.002533 0.108963 -0.026696
		CHANNELS 3 Zrotation Yrotation Xrotation
		JOINT Spine1
		{
			OFFSET 0.005487 0.135180 0.001092
			CHANNELS 3 Zrotation Yrotation Xrotation
			JOINT Spine2
			{
				OFFSET 0.001457 0.052922 0.025425
				CHANNELS 3 Zrotation Yrotation Xrotation
				JOINT Neck
				{
					OFFSET -0.002778 0.213870 -0.042857
					CHANNELS 3 Zrotation Yrotation Xrotation
					JOINT Head
					{
						OFFSET 0.005152 0.064970 0.051349
						CHANNELS 3 Zrotation Yrotation Xrotation
						End Site
						{
							OFFSET 0.000000 0.000000 0.000000
						}
					}
				}
				JOINT LeftShoulder
				{
					OFFSET 0.078845 0.121749 -0.034090
					CHANNELS 3 Zrotation Yrotation Xrotation
					JOINT LeftArm
					{
						OFFSET 0.090977 0.030469 -0.008868
						CHANNELS 3 Zrotation Yrotation Xrotation
						JOINT LeftForeArm
						{
							OFFSET 0.259612 -0.012772 -0.027456
							CHANNELS 3 Zrotation Yrotation Xrotation
							JOINT LeftHand
							{
								OFFSET 0.249234 0.008986 -0.001171
								CHANNELS 3 Zrotation Yrotation Xrotation
								End Site
								{
									OFFSET 0.000000 0.000000 0.000000
								}
							}
						}
					}
				}
				JOINT RightShoulder
				{
					OFFSET -0.081759 0.118833 -0.038615
					CHANNELS 3 Zrotation Yrotation Xrotation
					JOINT RightArm
					{
						OFFSET -0.096012 0.032551 -0.009143
						CHANNELS 3 Zrotation Yrotation Xrotation
						JOINT RightForeArm
						{
							OFFSET -0.253742 -0.013329 -0.021401
							CHANNELS 3 Zrotation Yrotation Xrotation
							JOINT RightHand
							{
								OFFSET -0.255298 0.007772 -0.005559
								CHANNELS 3 Zrotation Yrotation Xrotation
								End Site
								{
									OFFSET 0.000000 0.000000 0.000000
								}
							}
						}
					}
				}
			}
		}
	}
}
MOTION
Frames: 16
Frame Time: 0.050000
0.131962 0.936998 0.962920 -4.178323 27.552143 -4.553448 2.183298 -0.007989 8.540539 -0.311066 -0.329821 6.507980 5.264081 8.510609 -1.433680 0.000000 0.000000 0.000000 -0.756936 0.822547 -21.620664 4.625908 -3.461788 26.789590 -6.064586 -14.364961 3.505885 0.000000 0.000000 0.000000 -3.142280 -0.197042 5.682107 0.001852 -0.180763 1.249414 3.031716 -5.739389 14.997146 -5.530582 5.391674 -9.634203 0.000000 0.000000 0.000000 -8.763957 -6.973373 1.141034 -45.581688 -23.017055 2.151773 136.260028 -44.712282 -89.598130 0.000000 0.000000 0.000000 5.213721 13.031236 5.688022 40.978782 31.512285 5.677147 -129.030545 43.732802 -64.573822 0.000000 0.000000 0.000000 
0.141407 0.936128 0.997485 -4.575601 32.121991 -5.458909 3.941412 -0.543714 11.559276 -0.640086 -0.248599 5.590355 3.435099 4.544572 -1.952598 0.000000 0.000000 0.000000 -1.199203 0.474228 -21.068523 3.600617 -2.345291 19.873934 -6.445969 -14.185765 6.978224 0.000000 0.000000 0.000000 -3.389168 -0.253830 6.491326 1.058978 -0.635709 0.599308 2.589851 -6.298231 15.503486 -4.939325 5.160059 -9.566989 0.000000 0.000000 0.000000 -7.303839 -7.183212 1.122502 -48.218588 -24.220755 2.646948 137.965835 -46.280821 -95.669136 0.000000 0.000000 0.000000 4.841581 13.002892 5.808197 40.892455 32.105681 5.974957 -127.262688 44.445524 -62.306438 0.000000 0.000000 0.000000 
0.153326 0.933156 1.035801 -3.870156 34.311323 -5.191913 4.262439 -0.841448 13.483560 -0.332674 -0.268218 5.385558 2.587465 2.322111 -2.676073 0.000000 0.000000 0.000000 -0.538814 0.542068 -20.427045 1.376522 -1.289184 16.892528 -5.423500 -12.197672 5.273516 0.000000 0.000000 0.000000 -3.431327 -0.266539 6.679498 1.085980 -0.454157 -0.725826 2.184271 -4.914815 16.571795 -3.600904 4.393943 -8.541083 0.000000 0.000000 0.000000 -7.204676 -6.478298 0.534792 -50.317864 -25.115023 2.944756 141.532782 -47.480715 -104.325836 0.000000 0.000000 0.000000 5.673948 13.444230 6.472199 39.999382 33.899339 6.444982 -126.321255 44.344482 -59.405705 0.000000 0.000000 0.000000 
0.168233 0.925246 1.077456 -3.081664 37.639813 -5.414134 5.102157 -1.312815 14.649550 0.147594 -0.556948 8.225741 2.580852 1.887150 -2.934281 0.000000 0.000000 0.000000 -0.617415 0.374503 -19.805876 1.401215 -1.955732 19.970769 -5.344896 -11.728736 5.912460 0.000000 0.000000 0.000000 -2.666787 -0.276904 6.384867 1.318134 -0.658712 -0.226767 1.391752 -3.290756 16.818277 -1.726108 3.328539 -8.644860 0.000000 0.000000 0.000000 -7.332044 -8.260219 0.737976 -50.256427 -26.800629 3.530309 142.098176 -47.631238 -107.737231 0.000000 0.000000 0.000000 5.351710 14.112192 7.018950 37.737884 35.494802 6.713465 -125.738038 42.031082 -53.815877 0.000000 0.000000 0.000000 
0.185498 0.910930 1.120766 -1.994530 41.580033 -6.558628 4.971720 -1.468723 14.379165 0.850782 -1.539240 14.855431 3.399744 1.596998 -4.760633 0.000000 0.000000 0.000000 -1.272440 0.122733 -17.692412 1.156699 -4.001690 28.112355 -5.004978 -12.353770 0.891985 0.000000 0.000000 0.000000 -2.376864 -0.451878 8.429737 1.760812 -0.852227 -0.358238 1.141113 -2.399435 15.435778 0.638137 1.821092 -8.660638 0.000000 0.000000 0.000000 -9.703453 -10.434510 0.573368 -49.036967 -27.441371 4.081614 142.585510 -47.927296 -110.643259 0.000000 0.000000 0.000000 5.073354 14.975186 7.576572 35.089839 37.063632 6.812746 -122.425968 39.306269 -45.915522 0.000000 0.000000 0.000000 
0.203184 0.899289 1.162571 -2.291002 44.166815 -7.975946 5.660169 -1.645870 13.402941 1.233016 -2.852600 20.989957 3.443928 3.060533 -2.891346 0.000000 0.000000 0.000000 -1.708209 -0.027978 -16.358640 1.931154 -7.341508 36.072577 -3.532358 -9.726076 -3.070430 0.000000 0.000000 0.000000 -1.778176 -0.589698 9.435830 1.868732 -1.037898 0.273076 1.199935 -1.420591 15.310085 1.570774 1.588892 -9.906949 0.000000 0.000000 0.000000 -12.025769 -10.483766 -0.410953 -47.890232 -28.212338 4.634077 145.552687 -48.413604 -116.909796 0.000000 0.000000 0.000000 3.690355 16.068601 7.779555 33.310748 39.542383 7.478400 -118.300044 34.834453 -35.414290 0.000000 0.000000 0.000000 
0.220011 0.902053 1.202313 -2.481906 46.489833 -8.305016 6.401405 -1.481869 9.901984 0.054355 -4.964656 29.924286 2.973178 6.065524 2.234670 0.000000 0.000000 0.000000 -1.891822 -0.060112 -14.700991 3.296755 -9.869077 38.902677 -4.303686 -11.366106 -1.346463 0.000000 0.000000 0.000000 -1.790179 -0.540711 8.793964 1.898998 -1.106506 0.434251 1.678583 1.198914 16.284755 2.373329 1.285328 -9.361628 0.000000 0.000000 0.000000 -12.185176 -12.757466 -0.364710 -48.567429 -30.128290 5.467131 145.369565 -49.076539 -119.919397 0.000000 0.000000 0.000000 1.358983 16.101125 7.244758 33.239273 39.133702 7.828959 -114.620267 29.579048 -23.541568 0.000000 0.000000 0.000000 
0.234736 0.922292 1.239175 -3.027919 47.492526 -10.207280 7.372070 -1.182555 4.890055 -4.246987 -6.531207 39.247994 2.239737 10.189320 10.985942 0.000000 0.000000 0.000000 -2.488592 -0.130897 -11.670998 4.645507 -11.817050 40.304037 -4.463862 -10.044648 7.149858 0.000000 0.000000 0.000000 -1.435694 -0.878847 11.358486 0.712848 0.175603 -3.332960 2.958057 2.260718 19.132463 3.727486 0.295608 -8.147430 0.000000 0.000000 0.000000 -13.261257 -14.284565 -0.640505 -48.965212 -29.421482 5.217926 148.078052 -50.277983 -126.848874 0.000000 0.000000 0.000000 0.793003 14.931491 6.580725 32.848552 38.958003 7.828254 -110.284498 28.775908 -19.379291 0.000000 0.000000 0.000000 
0.247307 0.949353 1.273014 -2.646714 46.874236 -9.219679 7.499226 -0.865941 -1.278877 -7.553384 -5.728106 40.394259 2.003539 10.147499 11.145322 0.000000 0.000000 0.000000 -3.985175 -0.660098 -14.963828 3.888687 -14.438139 47.662985 -0.774950 -3.469038 17.271970 0.000000 0.000000 0.000000 -2.060771 -0.828777 11.328138 -0.002926 0.536551 -3.786341 3.327939 3.337517 19.761676 4.710351 -0.524394 -7.565315 0.000000 0.000000 0.000000 -11.575823 -13.223837 -0.791213 -51.727506 -29.394586 5.070273 151.735296 -51.340093 -135.326848 0.000000 0.000000 0.000000 -0.859031 15.224259 6.098044 35.290278 39.005438 8.988009 -111.363717 28.855653 -18.981738 0.000000 0.000000 0.000000 
0.260282 0.965611 1.307433 -1.359935 47.041310 -9.089636 5.481449 -0.601659 -1.347361 -4.299568 -4.690633 32.746825 2.077866 5.952079 3.546374 0.000000 0.000000 0.000000 -5.550347 -1.257408 -16.503746 3.049096 -14.126734 49.032453 -0.901749 -3.752131 16.605445 0.000000 0.000000 0.000000 -3.022243 -0.975531 12.799391 -1.027998 0.937819 -3.650260 4.273747 3.222057 19.682911 2.788376 0.273329 -5.331768 0.000000 0.000000 0.000000 -10.728756 -12.734440 -0.600036 -52.218580 -28.971402 4.766060 151.433834 -49.183434 -132.221922 0.000000 0.000000 0.000000 -3.592849 15.811039 5.180292 37.937169 38.786014 10.301919 -113.385801 27.964886 -18.643502 0.000000 0.000000 0.000000 
0.276307 0.966033 1.346579 -2.564280 47.523070 -11.016600 4.618828 -0.511798 -1.698880 0.141372 -5.063315 28.929288 -0.143010 2.673831 3.919015 0.000000 0.000000 0.000000 -4.776699 -1.111843 -16.661498 3.176477 -11.795525 43.310859 -4.148225 -8.828755 11.699820 0.000000 0.000000 0.000000 -3.233312 -1.062511 13.414029 -0.338839 0.449152 -2.177526 4.305569 3.628031 19.314222 2.182837 0.583071 -4.733501 0.000000 0.000000 0.000000 -10.275210 -13.117207 -0.358898 -52.316120 -26.883249 3.917474 153.664459 -49.289376 -136.808822 0.000000 0.000000 0.000000 -4.670578 14.835182 4.369291 39.252152 38.337462 10.790762 -113.489894 27.465080 -17.403092 0.000000 0.000000 0.000000 
0.295290 0.944409 1.391410 -4.612027 47.226127 -13.804350 5.257807 -0.575964 -2.611223 1.512670 -6.803547 32.525437 0.333738 1.661365 1.751841 0.000000 0.000000 0.000000 -3.392263 -0.537796 -14.123866 4.645802 -8.204249 32.091363 -6.396502 -13.675749 7.272418 0.000000 0.000000 0.000000 -2.379506 -1.005866 12.543645 0.579703 -0.172186 -0.890151 3.751511 4.348922 19.009663 3.308932 -1.864200 -0.461489 0.000000 0.000000 0.000000 -11.153355 -12.344894 -1.053800 -51.999143 -25.346144 3.473472 154.631175 -50.862524 -140.349224 0.000000 0.000000 0.000000 -1.821777 15.414444 5.743330 37.160398 37.430781 9.225154 -115.217811 29.787802 -21.888717 0.000000 0.000000 0.000000 
0.314413 0.911793 1.438228 -4.644125 47.102145 -15.089835 5.855647 -0.712833 -6.257396 -1.282347 -11.525967 47.023896 2.758517 7.000044 3.135284 0.000000 0.000000 0.000000 -1.912762 -0.041722 -11.165785 5.394485 -7.777508 29.553882 -6.362239 -15.493429 2.645218 0.000000 0.000000 0.000000 -1.906755 -0.806037 10.849489 0.255952 -0.462864 1.351849 4.177344 5.420647 17.879496 4.442202 -3.542655 1.082356 0.000000 0.000000 0.000000 -15.653089 -14.086505 -2.032515 -48.987423 -19.224382 2.206180 156.651772 -50.727579 -143.068158 0.000000 0.000000 0.000000 0.111996 16.138334 6.884046 35.352332 34.573045 7.185317 -117.362518 30.777960 -24.636158 0.000000 0.000000 0.000000 
0.330338 0.876213 1.481775 -4.655570 44.460694 -17.916478 7.281017 -0.915083 -9.809050 -7.641936 -13.073323 60.907724 4.928316 12.210214 6.032925 0.000000 0.000000 0.000000 -1.377822 0.120228 -8.538392 5.750084 -11.155244 38.332879 -4.244623 -13.256822 -7.021713 0.000000 0.000000 0.000000 -0.615402 -1.190049 13.292110 -1.793956 0.544471 1.717673 5.036224 7.076382 17.247751 4.353819 -4.404404 3.270947 0.000000 0.000000 0.000000 -17.707474 -13.836713 -2.625616 -47.850672 -15.684830 1.245921 156.429116 -49.957525 -140.656429 0.000000 0.000000 0.000000 2.118709 17.525433 8.217471 32.302620 34.214019 5.789941 -119.055289 27.882615 -22.101774 0.000000 0.000000 0.000000 
0.341588 0.856309 1.515430 -4.118856 41.669843 -19.930160 6.803331 -1.142786 -13.365345 -9.018182 -12.603422 64.233500 6.536292 13.194829 1.132562 0.000000 0.000000 0.000000 0.543943 0.448512 -6.982948 3.771865 -11.995272 45.104971 -3.645046 -11.489926 -10.529435 0.000000 0.000000 0.000000 -1.627615 -1.473762 15.851919 -2.215889 0.744116 2.466523 5.261879 8.509911 15.326248 2.665108 -3.180534 4.183477 0.000000 0.000000 0.000000 -19.687059 -12.840134 -3.543489 -48.419094 -12.911689 0.721221 155.338990 -49.966414 -138.045004 0.000000 0.000000 0.000000 5.334324 19.592422 10.424161 27.850185 35.700420 4.664453 -119.340024 25.817514 -21.061883 0.000000 0.000000 0.000000 
0.349837 0.852723 1.541110 -3.853575 39.480483 -20.146119 5.879130 -1.547220 -16.686898 -6.207353 -12.530567 60.584684 6.328475 8.930322 -6.905253 0.000000 0.000000 0.000000 2.135772 0.536565 -4.721387 3.351540 -11.697910 46.564903 -2.798929 -8.336439 -11.603803 0.000000 0.000000 0.000000 -2.148090 -1.496677 16.564226 -2.291948 0.878939 2.203073 5.249625 9.060921 16.384691 3.077722 -3.879741 4.943570 0.000000 0.000000 0.000000 -17.800733 -12.320949 -2.992953 -53.137310 -13.092979 0.110321 156.689358 -48.214747 -139.383521 0.000000 0.000000 0.000000 5.084981 20.109009 10.440348 27.868918 37.947713 5.336503 -120.988880 25.967559 -22.207774 0.000000 0.000000 0.000000 
